<svg id="Layer_1" enable-background="new 0 0 512 512" height="512" viewBox="0 0 512 512" width="512" xmlns="http://www.w3.org/2000/svg"><g><g id="XMLID_1197_"><g><g id="XMLID_1652_"><g id="XMLID_1653_"><g id="XMLID_1654_"><g id="XMLID_1655_"><g id="XMLID_1656_"><g id="XMLID_1657_"><g id="XMLID_1658_"><g id="XMLID_1660_"><g id="XMLID_1662_"><g id="XMLID_1663_"><g id="XMLID_1664_"><g id="XMLID_1665_"><g id="XMLID_1666_"><g id="XMLID_1719_"><circle cx="256" cy="256" fill="#4793ff" r="256"/></g></g></g></g></g></g></g></g></g></g></g></g></g></g></g></g><g id="XMLID_342_"><g><g id="XMLID_876_"><g id="XMLID_877_"><g id="XMLID_878_"><g id="XMLID_879_"><g id="XMLID_880_"><g id="XMLID_892_"><g id="XMLID_893_"><g id="XMLID_1522_"><g id="XMLID_1523_"><g id="XMLID_1524_"><g id="XMLID_1525_"><g id="XMLID_1526_"><g id="XMLID_1527_"><g><path d="m512 256c0 141.38-114.62 256-256 256-2.73 0-5.45-.04-8.16-.13-137.6-4.31-247.84-117.22-247.84-255.87 0-141.38 114.62-256 256-256 130.73 0 238.58 98 254.08 224.54 1.27 10.31 1.92 20.81 1.92 31.46z" fill="#4793ff"/></g></g></g></g></g></g></g></g></g></g></g></g></g></g></g></g><path d="m512 256c0 141.38-114.62 256-256 256-2.73 0-5.45-.04-8.16-.13-27.35-27.09-46.7-46.19-46.96-46.19l-99.62-99.62c-30.43-288.34 218.54-236.83 218.54-236.83l53.23 53.23 24.11-.1 12.39-42.36 42.72 42 15.84.54 41.99 42c1.27 10.31 1.92 20.81 1.92 31.46z" fill="#424fdd"/><path d="m175.423 249.02c0-66.613 57.883-120.614 129.285-120.614 5.105 0 10.138.285 15.089.822-28.551-25.704-66.335-41.353-107.777-41.353-88.998 0-161.146 72.147-161.146 161.145s72.147 161.146 161.146 161.146c41.442 0 79.225-15.649 107.777-41.353-4.951.537-9.984.822-15.089.822-71.402-.001-129.285-54.002-129.285-120.615z" fill="#fff4c5"/><g fill="#ffea92"><path d="m203.556 173.896v-85.806c2.802-.144 5.629-.22 8.465-.22 41.443 0 79.229 15.651 107.78 41.358-4.952-.542-9.988-.821-15.092-.821-40.953 0-77.469 17.767-101.153 45.489z"/><path d="m304.708 369.632c5.104 0 10.141-.279 15.092-.821-28.551 25.707-66.337 41.358-107.78 41.358-2.836 0-5.663-.076-8.465-.22v-85.806c23.685 27.722 60.201 45.489 101.153 45.489z"/><path d="m203.556 173.896v-85.806"/></g><g><path d="m273.534 209.346 12.891 26.12 28.825 4.188-20.858 20.332 4.924 28.709-25.782-13.554-25.783 13.554 4.924-28.709-20.858-20.332 28.825-4.188z" fill="#fff"/><path d="m294.39 259.984 4.93 28.71-25.79-13.55v-65.8l12.89 26.12 28.83 4.19z" fill="#daefec"/></g><g><path d="m409.534 140.001 18.093 36.662 40.459 5.879-29.276 28.537 6.911 40.295-36.187-19.025-36.188 19.025 6.912-40.295-29.276-28.537 40.458-5.879z" fill="#fff"/><path d="m438.807 211.075 6.92 40.297-36.198-19.019v-92.354l18.092 36.661 40.465 5.881z" fill="#daefec"/></g></g></svg>