<svg id="Layer_1" enable-background="new 0 0 512 512" height="512" viewBox="0 0 512 512" width="512" xmlns="http://www.w3.org/2000/svg"><g><g id="XMLID_33_"><g><g id="XMLID_1090_"><g id="XMLID_1091_"><g id="XMLID_1092_"><g id="XMLID_1093_"><g id="XMLID_1094_"><g id="XMLID_1095_"><g id="XMLID_1096_"><g id="XMLID_1097_"><g id="XMLID_1098_"><g id="XMLID_1142_"><g id="XMLID_1389_"><g id="XMLID_1606_"><g id="XMLID_1737_"><g id="XMLID_1938_"><circle cx="256" cy="256" fill="#4793ff" r="256"/></g></g></g></g></g></g></g></g></g></g></g></g></g></g></g></g><path d="m512 256c0-1.548-.031-3.089-.059-4.631l-133.52-133.52-318.964 230.987 160.647 160.647c11.731 1.646 23.711 2.517 35.896 2.517 141.385 0 256-114.615 256-256z" fill="#424fdd"/><g><g><path d="m411.599 192.011c-2.612 0-5.183.168-7.716.462.249-2.837.384-5.707.384-8.609 0-53.713-43.543-97.257-97.257-97.257-44.735 0-82.41 30.205-93.757 71.332-3.603-.474-7.277-.722-11.009-.722-46.162 0-83.585 37.422-83.585 83.585s37.422 83.585 83.585 83.585h209.355c36.555 0 66.188-29.633 66.188-66.188-.001-36.554-29.634-66.188-66.188-66.188z" fill="#51eaf2"/><g><path d="m477.786 258.197c0 36.557-29.632 66.189-66.189 66.189h-113.374v-237.385c2.895-.266 5.825-.395 8.789-.395 53.715 0 97.257 43.542 97.257 97.256 0 2.904-.137 5.773-.387 8.609 2.535-.292 5.103-.464 7.715-.464 36.557 0 66.189 29.641 66.189 66.19z" fill="#24cee0"/></g></g><g><path d="m325.153 238.307c-2.612 0-5.183.168-7.715.462.249-2.837.383-5.707.383-8.609 0-53.713-43.543-97.257-97.257-97.257-44.735 0-82.41 30.205-93.757 71.332-3.603-.474-7.277-.722-11.009-.722-46.163 0-83.585 37.422-83.585 83.585s37.422 83.585 83.585 83.585h209.355c36.555 0 66.188-29.633 66.188-66.188 0-36.554-29.633-66.188-66.188-66.188z" fill="#fff"/><g><path d="m391.341 304.493c0 36.557-29.632 66.19-66.189 66.19h-113.375v-237.386c2.895-.266 5.825-.395 8.789-.395 53.715 0 97.257 43.542 97.257 97.257 0 2.904-.138 5.774-.387 8.609 2.535-.292 5.103-.464 7.715-.464 36.558-.001 66.19 29.64 66.19 66.189z" fill="#daefec"/></g></g></g></g></svg>