<svg id="Layer_1" enable-background="new 0 0 512 512" height="512" viewBox="0 0 512 512" width="512" xmlns="http://www.w3.org/2000/svg"><g><g id="XMLID_292_"><g><g><circle cx="256" cy="256" fill="#4793ff" r="256"/></g></g></g><path d="m512 256c0-27.811-4.452-54.578-12.653-79.649l-94.815-94.815-9.591 4.045-34.2-33.169s-12.907 21.161-27.531 12.464l-22.965-22.395-1.358 32.632-235.787 232.692 74.551 74.551-19.699 3.44 46.395 46.191-46.395 15.402 60.96 55.71c21.384 5.792 43.872 8.901 67.088 8.901 141.385 0 256-114.615 256-256z" fill="#424fdd"/><g><path d="m127.952 417.389h171.8v30h-171.8z" fill="#51eaf2"/></g><g><path d="m127.952 355.796h171.8v30h-171.8z" fill="#51eaf2"/></g><g><path d="m212 355.8h87.75v30h-87.75z" fill="#22c2d3"/></g><g><path d="m212 417.39h87.75v30h-87.75z" fill="#22c2d3"/></g><g><g><path d="m433.608 182.203 9.978-6.381-10.706-6.847c-11.583-7.408-14.709-22.947-6.891-34.258l7.226-10.454-11.669-2.027c-13.628-2.367-22.527-15.624-19.557-29.133l2.543-11.568-12.411 2.729c-13.429 2.952-26.627-5.825-29.097-19.351l-2.283-12.501-9.685 6.818c-11.31 7.963-26.977 4.881-34.429-6.771l-6.381-9.978-6.847 10.706c-7.408 11.583-22.947 14.709-34.258 6.891l-10.454-7.226-2.027 11.669c-2.367 13.628-15.624 22.527-29.133 19.557l-11.568-2.543 2.729 12.411c2.952 13.429-5.825 26.627-19.351 29.097l-12.501 2.283 6.818 9.685c7.962 11.31 4.881 26.977-6.771 34.429l-9.978 6.381 10.706 6.847c11.583 7.408 14.709 22.947 6.891 34.258l-7.226 10.454 11.669 2.027c13.628 2.367 22.527 15.624 19.557 29.133l-2.543 11.568 12.411-2.729c13.429-2.952 26.627 5.825 29.096 19.351l2.283 12.501 9.685-6.818c11.31-7.963 26.977-4.881 34.43 6.771l6.381 9.978 6.847-10.706c7.408-11.583 22.947-14.709 34.258-6.891l10.454 7.226 2.027-11.669c2.367-13.628 15.624-22.527 29.133-19.557l11.568 2.543-2.729-12.411c-2.952-13.429 5.825-26.627 19.351-29.097l12.501-2.283-6.818-9.685c-7.962-11.31-4.881-26.977 6.771-34.429z" fill="#fdbf2d"/><g><g><g><path d="m426.838 216.635 6.817 9.68-12.497 2.281c-13.532 2.475-22.306 15.674-19.351 29.104l2.725 12.405-11.564-2.54c-13.513-2.974-26.767 5.93-29.141 19.554l-2.023 11.675-10.456-7.232c-11.306-7.814-26.851-4.692-34.258 6.89l-6.844 10.714v-266.686l6.382 9.976c7.454 11.656 23.119 14.741 34.425 6.77l9.689-6.817 2.281 12.506c2.466 13.522 15.665 22.297 29.095 19.35l12.414-2.734-2.54 11.573c-2.974 13.504 5.93 26.767 19.554 29.132l11.666 2.023-7.223 10.456c-7.814 11.315-4.692 26.851 6.891 34.258l10.705 6.844-9.976 6.382c-11.657 7.456-14.733 23.121-6.771 34.436z" fill="#fd9827"/></g></g></g><g id="XMLID_324_"><g><g id="XMLID_842_"><g id="XMLID_843_"><g id="XMLID_844_"><g id="XMLID_845_"><g id="XMLID_846_"><g id="XMLID_847_"><g id="XMLID_848_"><g id="XMLID_849_"><g id="XMLID_850_"><g id="XMLID_856_"><g id="XMLID_874_"><g id="XMLID_889_"><g id="XMLID_890_"><g id="XMLID_891_"><circle cx="310.246" cy="175.822" fill="#ffe05f" r="93.462"/></g></g></g></g></g></g></g></g></g></g></g></g></g></g></g></g><g id="XMLID_13_"><g><g id="XMLID_726_"><g id="XMLID_727_"><g id="XMLID_728_"><g id="XMLID_729_"><g id="XMLID_811_"><g id="XMLID_822_"><g id="XMLID_823_"><g id="XMLID_824_"><g id="XMLID_825_"><g id="XMLID_826_"><g id="XMLID_827_"><g id="XMLID_828_"><g id="XMLID_829_"><g><path d="m403.71 175.819c0 51.623-41.851 93.465-93.464 93.465v-186.921c51.613 0 93.464 41.842 93.464 93.456z" fill="#f9cb0d"/></g></g></g></g></g></g></g></g></g></g></g></g></g></g></g></g></g><g><path d="m318.572 205.773c-2.412 0-4.787.155-7.126.427.23-2.621.354-5.271.354-7.952 0-49.613-40.219-89.831-89.832-89.831-41.32 0-76.118 27.899-86.599 65.886-3.328-.438-6.721-.667-10.169-.667-42.638 0-77.203 34.565-77.203 77.203s34.565 77.203 77.203 77.203h193.371c33.764 0 61.135-27.371 61.135-61.135s-27.37-61.134-61.134-61.134z" fill="#fff"/><g><path d="m379.707 266.906c0 33.766-27.37 61.136-61.136 61.136h-104.719v-219.262c2.674-.246 5.38-.365 8.118-.365 49.614 0 89.831 40.218 89.831 89.831 0 2.682-.127 5.333-.357 7.952 2.341-.27 4.714-.429 7.126-.429 33.767.001 61.137 27.378 61.137 61.137z" fill="#daefec"/></g></g></g></g></svg>