<svg id="Layer_1" enable-background="new 0 0 512 512" height="512" viewBox="0 0 512 512" width="512" xmlns="http://www.w3.org/2000/svg"><g><g id="XMLID_50_"><g><g id="XMLID_894_"><g id="XMLID_895_"><g id="XMLID_1433_"><g id="XMLID_1434_"><g id="XMLID_1435_"><g id="XMLID_1436_"><g id="XMLID_1437_"><g id="XMLID_1438_"><g id="XMLID_1439_"><g id="XMLID_1440_"><g id="XMLID_1441_"><g id="XMLID_1442_"><g id="XMLID_1443_"><g id="XMLID_1444_"><circle cx="256" cy="256" fill="#4793ff" r="256"/></g></g></g></g></g></g></g></g></g></g></g></g></g></g></g></g><path d="m512 256c0-9.732-.562-19.331-1.62-28.781l-152.958-152.958s-76.422 18.739-86.422 81.406c-10 62.666-201.593 206.791-201.593 206.791l146.391 146.391c13.098 2.066 26.523 3.151 40.202 3.151 141.385 0 256-114.615 256-256z" fill="#424fdd"/><g><path d="m353.69 189.105c-30.749-30.749-30.749-80.603 0-111.352 1.214-1.214 2.46-2.374 3.731-3.492-30.639-.989-61.599 10.202-84.986 33.589-44.876 44.876-44.876 117.634 0 162.51s117.634 44.876 162.51 0c23.387-23.387 34.578-54.347 33.589-84.986-1.118 1.271-2.278 2.518-3.492 3.732-30.749 30.748-80.603 30.748-111.352-.001z" fill="#ffea92"/><path d="m434.948 270.36c-20.83 20.83-47.68 32-74.95 33.48v-109.07c30.92 24.95 76.32 23.06 105.04-5.67 1.22-1.21 2.38-2.46 3.5-3.73.99 30.64-10.21 61.6-33.59 84.99z" fill="#ffdd50"/><g><path d="m333.483 250.515c-2.612 0-5.183.168-7.716.462.249-2.837.384-5.707.384-8.609 0-53.713-43.543-97.257-97.257-97.257-44.735 0-82.41 30.205-93.757 71.332-3.603-.474-7.277-.722-11.009-.722-46.163 0-83.585 37.422-83.585 83.585s37.422 83.585 83.585 83.585h209.355c36.555 0 66.188-29.633 66.188-66.188s-29.633-66.188-66.188-66.188z" fill="#fff"/><g><path d="m399.671 316.7c0 36.557-29.632 66.189-66.189 66.189h-113.375v-237.385c2.895-.266 5.825-.395 8.789-.395 53.715 0 97.257 43.542 97.257 97.257 0 2.904-.137 5.773-.387 8.609 2.534-.292 5.103-.464 7.715-.464 36.558-.001 66.19 29.64 66.19 66.189z" fill="#daefec"/></g></g></g></g></svg>