<svg id="Layer_1" enable-background="new 0 0 512 512" height="512" viewBox="0 0 512 512" width="512" xmlns="http://www.w3.org/2000/svg"><g><g id="XMLID_117_"><g><circle cx="256" cy="256" fill="#51eaf2" r="256"/></g></g><path d="m512 256c0-5.662-.204-11.276-.566-16.846l-160.812-160.812-266.766 211.828 71.305 71.668-25.833 90.828 46.516 46.516c25.217 8.308 52.158 12.818 80.156 12.818 141.385 0 256-114.615 256-256z" fill="#22c2d3"/><g><path d="m386.228 160.74c-3 0-5.953.193-8.862.531.286-3.259.441-6.555.441-9.889 0-61.698-50.016-111.713-111.713-111.713-51.385 0-94.66 34.695-107.693 81.936-4.138-.545-8.358-.83-12.646-.83-53.024 0-96.009 42.985-96.009 96.009s42.985 96.009 96.009 96.009h240.474c41.988 0 76.027-34.038 76.027-76.027s-34.039-76.026-76.028-76.026z" fill="#4793ff"/><g><path d="m462.255 236.764c0 41.991-34.037 76.028-76.028 76.028h-130.227v-272.671c3.326-.306 6.691-.454 10.096-.454 61.699 0 111.713 50.014 111.713 111.713 0 3.336-.158 6.632-.444 9.888 2.911-.335 5.862-.533 8.862-.533 41.991 0 76.028 34.047 76.028 76.029z" fill="#424fdd"/></g></g><g><g><path d="m278.224 350.634h30v102.033h-30z" fill="#daefec"/></g><g><path d="m352.671 350.634h30v62.602h-30z" fill="#daefec"/></g><g><path d="m129.329 350.634h30v102.033h-30z" fill="#fff"/></g><g><path d="m203.776 350.634h30v62.602h-30z" fill="#fff"/></g></g></g></svg>