<svg id="Layer_1" enable-background="new 0 0 512 512" height="512" viewBox="0 0 512 512" width="512" xmlns="http://www.w3.org/2000/svg"><g><g id="XMLID_707_"><g><g id="XMLID_1491_"><g id="XMLID_1546_"><g id="XMLID_1585_"><g id="XMLID_1617_"><g id="XMLID_1647_"><g id="XMLID_1648_"><g id="XMLID_1649_"><g id="XMLID_1650_"><g id="XMLID_1651_"><g id="XMLID_1669_"><g id="XMLID_1670_"><g id="XMLID_1671_"><g id="XMLID_1672_"><g id="XMLID_1679_"><circle cx="256" cy="256" fill="#00337a" r="256"/></g></g></g></g></g></g></g></g></g></g></g></g></g></g></g></g><g id="XMLID_343_"><g><g id="XMLID_997_"><g id="XMLID_998_"><g id="XMLID_999_"><g id="XMLID_1000_"><g id="XMLID_1001_"><g id="XMLID_1002_"><g id="XMLID_1003_"><g id="XMLID_1335_"><g id="XMLID_1336_"><g id="XMLID_1344_"><g id="XMLID_1345_"><g id="XMLID_1346_"><g id="XMLID_1347_"><g><path d="m512 256c0 110.79-70.38 205.14-168.87 240.78-7.78 2.82-15.74 5.27-23.85 7.33-20.24 5.15-41.44 7.89-63.28 7.89-11.1 0-22.04-.71-32.77-2.08-125.91-16.09-223.23-123.64-223.23-253.92 0-141.38 114.62-256 256-256 138.56 0 251.42 110.1 255.86 247.58v.01c.09 2.8.14 5.59.14 8.41z" fill="#00337a"/></g></g></g></g></g></g></g></g></g></g></g></g></g></g></g></g><g><path d="m319.28 504.11c-20.24 5.15-41.44 7.89-63.28 7.89-11.1 0-22.04-.71-32.77-2.08l-70.18-70.18 8.33-12.24-67.87-66.76 26.17-56.24z" fill="#002659"/></g><path d="m512 256c0 110.79-70.38 205.14-168.87 240.78l-171.93-171.89 8.33 1.37-70.95-71.19 231.93-184.19 171.35 176.7v.01c.09 2.8.14 5.59.14 8.41z" fill="#002659"/><g><g><g><g><path d="m372.378 143.529c-2.606 0-5.173.167-7.7.461.248-2.832.383-5.696.383-8.592 0-53.607-43.458-97.065-97.065-97.065-44.647 0-82.247 30.146-93.572 71.192-3.596-.473-7.262-.721-10.987-.721-46.072 0-83.42 37.348-83.42 83.42s37.348 83.42 83.42 83.42h208.942c36.483 0 66.058-29.575 66.058-66.058-.001-36.482-29.576-66.057-66.059-66.057z" fill="#51eaf2"/></g></g></g><g><g><path d="m438.438 209.585c0 36.486-29.576 66.054-66.063 66.054h-113.15v-236.916c2.888-.262 5.811-.393 8.768-.393 53.613 0 97.07 43.457 97.07 97.07 0 2.897-.14 5.758-.384 8.594 2.521-.297 5.095-.463 7.695-.463 36.488 0 66.064 29.568 66.064 66.054z" fill="#22c2d3"/></g></g><path d="m317.258 304.945-13.429 7.973h-18.317l14.549-14.55-14.315-14.316-14.549 14.55v-18.317l7.973-13.428-19.944-29.991-19.944 29.991 7.974 13.428v18.317l-14.55-14.55-14.315 14.316 14.549 14.55h-18.317l-13.429-7.973-29.99 19.943 29.99 19.943 13.429-7.973h18.317l-14.549 14.55 14.315 14.316 14.55-14.55v18.317l-7.974 13.428 19.944 29.991 19.944-29.991-7.973-13.428v-18.317l14.549 14.55 14.315-14.316-14.549-14.55h18.317l13.429 7.973 29.991-19.943z" fill="#fff"/><path d="m347.249 324.89-29.995 19.944-13.428-7.974h-18.313l14.544 14.544-14.308 14.317-14.552-14.544v18.313l7.974 13.427-19.945 29.996v-176.046l19.945 29.987-5.218 8.785-2.756 4.642v18.322l14.552-14.553 14.308 14.317-14.544 14.553h18.313l13.428-7.975z" fill="#daefec"/></g><g><g><path d="m153.053 381.5h26.174v58.242h-26.174z" fill="#fff"/></g><g><path d="m339.227 381.5h26.174v58.242h-26.174z" fill="#daefec"/></g></g><g><g><path d="m93.506 304.5h26.174v56.242h-26.174z" fill="#fff"/></g><g><path d="m398.775 304.5h26.174v56.242h-26.174z" fill="#daefec"/></g></g></g></svg>