<svg id="Layer_1" enable-background="new 0 0 512 512" height="512" viewBox="0 0 512 512" width="512" xmlns="http://www.w3.org/2000/svg"><g><g id="XMLID_49_"><g><g id="XMLID_1308_"><g id="XMLID_1309_"><g id="XMLID_1310_"><g id="XMLID_1311_"><g id="XMLID_1312_"><g id="XMLID_1333_"><g id="XMLID_1334_"><g id="XMLID_1473_"><g id="XMLID_1477_"><g id="XMLID_1478_"><g id="XMLID_1479_"><g id="XMLID_1480_"><g id="XMLID_1481_"><g id="XMLID_1596_"><circle cx="256" cy="256" fill="#00337a" r="256"/></g></g></g></g></g></g></g></g></g></g></g></g></g></g></g></g><path d="m512 256c0-2.419-.041-4.828-.107-7.23l-162.634-162.635-266.962 212.024 148.903 149.14-12.38 22.26 42.375 42.374c138.985-2.767 250.805-116.285 250.805-255.933z" fill="#002659"/><g><g><path d="m386.228 170.074c-3 0-5.953.193-8.862.531.286-3.259.441-6.555.441-9.889 0-61.698-50.016-111.713-111.713-111.713-51.385 0-94.66 34.695-107.693 81.936-4.139-.545-8.359-.83-12.646-.83-53.024 0-96.009 42.985-96.009 96.009s42.985 96.009 96.009 96.009h240.474c41.988 0 76.027-34.038 76.027-76.027s-34.039-76.026-76.028-76.026z" fill="#fff"/><g><path d="m462.255 246.097c0 41.991-34.037 76.028-76.028 76.028h-130.227v-272.671c3.326-.306 6.691-.454 10.096-.454 61.699 0 111.713 50.014 111.713 111.713 0 3.336-.158 6.632-.444 9.888 2.911-.335 5.862-.533 8.862-.533 41.991.001 76.028 34.048 76.028 76.029z" fill="#daefec"/></g></g><path d="m325 281.188h-99.861l-58.191 101.489h72.65l-20.777 86.883 106.179-115.844h-41.247z" fill="#ffe05f"/><path d="m283.75 353.72h41.25l-69 75.28v-147.81h69z" fill="#f9cb0d"/></g></g></svg>