<svg id="Layer_1" enable-background="new 0 0 512 512" height="512" viewBox="0 0 512 512" width="512" xmlns="http://www.w3.org/2000/svg"><g><g id="XMLID_274_"><g><g><circle cx="256" cy="256" fill="#4793ff" r="256"/></g></g></g><path d="m512 256c0-25.515-3.751-50.15-10.7-73.405l-88.608-88.608-236.286 241.282 84.971 85.021c20.616 24.561-24.308 53.8-24.308 53.8l37.251 37.251c132.833-9.394 237.68-120.117 237.68-255.341z" fill="#424fdd"/><g><g><path d="m318.241 328.861s-5.466 14.989-5.273 15.799c2.451 10.381 9.598 15.799 9.598 15.799 1.327 83.603-85.497 113.631-85.497 113.631 34.1-122.817-126.493-134.808-88.11-223.819 1.438-3.342 2.714-6.603 3.818-9.793 0 0 11.311-9.194 12.329-15.279 1.782-10.653-7.052-33.262-7.052-33.262v-.01c-5.975-38.15-35.74-62.558-46.415-86.621l-2.471-6.553h304.82c3.23 22.116 2.303 40.642-1.418 56.573-2.176 9.317-14.09 17.741-17.905 25.481-4.517 9.163-1.211 17.366-7.193 24.929-33.103 41.851-81.706 64.245-69.231 123.125z" fill="#fff"/><path d="m412.569 155.325c-2.294 9.831-13.802 17.395-17.905 25.481-4.504 8.873-1.755 18.116-7.626 25.481-33.097 41.503-81.213 63.956-68.797 122.574 0 0-5.469 14.989-5.276 15.799 2.451 10.381 9.601 15.799 9.601 15.799.851 53.575-34.495 85.152-60.006 100.911v-362.618h151.427c3.231 22.119 2.299 40.642-1.418 56.573z" fill="#daefec"/><ellipse cx="261.58" cy="98.748" fill="#daefec" rx="152.409" ry="36.414"/><g><path d="m413.987 98.752c0 20.022-67.703 36.277-151.427 36.409v-72.828c83.725.132 151.427 16.387 151.427 36.419z" fill="#bcd8d3"/></g></g><ellipse cx="262.565" cy="98.748" fill="#bcd8d3" rx="73.83" ry="13.645"/><path d="m336.39 98.752c0 7.535-33.046 13.642-73.83 13.642v-27.294c40.784 0 73.83 6.117 73.83 13.652z" fill="#80afa6"/><path d="m235.367 234.816s-39.447 12.497-82.59 5.661c6.451-18.503 7.484-34.454 5.277-48.541 22.25 18.807 47.954 33.208 75.724 42.364z" fill="#daefec"/><g fill="#bcd8d3"><path d="m412.569 155.325c-4.811 20.62-14.31 36.885-25.532 50.962-39.963-8.203-69.627-26.625-69.627-26.625l1.924-.122c32.369-2.249 63.977-10.492 93.235-24.215z"/><path d="m322.566 360.459c-22.721 0-40.318-9.383-40.318-9.383 19.116-4.178 23.547-11.393 35.993-22.215.162.79.344 1.6.537 2.41 2.451 10.381 3.636 20.103 3.788 29.188z"/></g></g></g></svg>