<svg id="Layer_1" enable-background="new 0 0 512 512" height="512" viewBox="0 0 512 512" width="512" xmlns="http://www.w3.org/2000/svg"><g><g id="XMLID_6_"><g><g><circle cx="256" cy="256" fill="#ff8659" r="256"/></g></g></g><path d="m512 256c0-3.823-.1-7.622-.266-11.405l-170.313-170.392-2.373-2.175-263.852 209.573 226.355 226.355c119.653-21.489 210.449-126.118 210.449-251.956z" fill="#ff405c"/><path d="m376.362 155.829c-2.964 0-5.882.191-8.756.525.283-3.22.435-6.477.435-9.77 0-60.958-49.416-110.375-110.375-110.375-50.769 0-93.525 34.279-106.403 80.954-4.089-.538-8.258-.82-12.494-.82-52.389 0-94.858 42.47-94.858 94.859s42.47 94.858 94.858 94.858h237.592c41.485 0 75.115-33.63 75.115-75.115.001-41.485-33.629-75.116-75.114-75.116z" fill="#00337a"/><g><path d="m451.477 230.942c0 41.488-33.629 75.117-75.117 75.117h-128.666v-269.403c3.286-.302 6.611-.449 9.975-.449 60.959 0 110.374 49.415 110.374 110.374 0 3.296-.156 6.552-.439 9.77 2.876-.331 5.792-.527 8.756-.527 41.488.001 75.117 33.64 75.117 75.118z" fill="#002659"/></g><g><g><path d="m329.501 323.095h-207.472v-35h207.472c12.466 0 23.384-8.42 26.552-20.477 2.82-10.735-1.053-22.03-9.866-28.776-8.037-6.152-19.167-6.627-27.698-1.185l-18.824-29.506c20.881-13.322 48.126-12.157 67.795 2.897 20.05 15.347 28.859 41.042 22.444 65.461-7.205 27.43-32.044 46.586-60.403 46.586z" fill="#51eaf2"/></g></g><g><path d="m330.524 457.606c-9.214 0-18.447-2.59-26.538-7.819l19-29.395c4.958 3.205 11.43 2.921 16.105-.705 5.449-4.226 7.834-11.334 6.078-18.109-1.946-7.504-8.583-12.745-16.142-12.745h-141.31v-35h141.311c23.504 0 44.074 16.021 50.022 38.961 5.271 20.33-1.994 41.742-18.506 54.55-8.788 6.815-19.391 10.261-30.02 10.262z" fill="#51eaf2"/></g><g><g><path d="m389.9 276.51c-7.2 27.43-32.04 46.59-60.4 46.59h-81.81v-35h81.81c12.47 0 23.39-8.42 26.55-20.48 2.82-10.74-1.05-22.03-9.86-28.78-8.04-6.15-19.17-6.62-27.7-1.18l-18.83-29.51c20.89-13.32 48.13-12.16 67.8 2.9 20.05 15.35 28.86 41.04 22.44 65.46z" fill="#22c2d3"/></g></g><g><path d="m360.54 447.34c-8.78 6.82-19.39 10.27-30.02 10.27-9.21 0-18.44-2.59-26.53-7.82l19-29.4c4.95 3.21 11.43 2.92 16.1-.7 5.45-4.23 7.84-11.34 6.08-18.11-1.95-7.51-8.58-12.75-16.14-12.75h-81.34v-35h81.34c23.5 0 44.07 16.02 50.02 38.96 5.27 20.33-1.99 41.75-18.51 54.55z" fill="#22c2d3"/></g></g></svg>